<?xml version="1.0" encoding="utf-8"?>
<!-- Generator: Adobe Illustrator 22.0.0, SVG Export Plug-In . SVG Version: 6.00 Build 0)  -->
<svg version="1.1" id="Layer_1" xmlns="http://www.w3.org/2000/svg" xmlns:xlink="http://www.w3.org/1999/xlink" x="0px" y="0px" width="90" height="90" viewBox="0 0 90 90" style="enable-background:new 0 0 90 90;" xml:space="preserve">
<style type="text/css">
	.st0{fill:white;}
</style>
<g>
	<path class="st0" d="M45.9,48.9c1.8-6.4,3.2-12.9,4.1-19.5c0.8-6,1.4-12.1,1.7-18.2c-1.3,1-2.5,2.1-3.8,3.2c-1.7,1.5-3.2,3-4.7,4.6
		c-1.5,1.6-2.9,3.3-4.1,5.1c-1.3,1.8-2.3,3.7-3.1,5.7c-0.4,1-0.7,2-0.8,3.1C35,34,34.9,35,34.9,36.1c-0.1,2.2-0.1,4.4,0.1,6.6
		c0.4,4.4,1,8.8,2,13.1l0.3,1.2l-1.2,0l-2.9-0.1c0.7,0.7,1.4,1.5,2,2.3c0.6,0.8,1.1,1.6,1.5,2.4c0.2,0.4,0.4,0.9,0.6,1.4
		c0.2,0.5,0.3,1,0.3,1.5c0.2,1.9,0,3.9-0.6,5.7c-0.3,0.9-0.7,1.8-1.1,2.6c-0.3,0.6-0.6,1.1-1,1.6c0.7,0.2,1.4,0.3,2.1,0.4
		c0.9-2.3,1.8-4.6,2.6-6.9C41.9,61.6,44.1,55.3,45.9,48.9z"/>
	<path class="st0" d="M0,0v90h90V0H0z M57.4,62.8c-0.5,0.2-1,0.4-1.5,0.7c-0.5,0.3-1,0.6-1.5,0.9c-1,0.6-1.9,1.3-2.8,2.1
		c-1.7,1.6-3.2,3.4-4.4,5.3l-0.4,0.8c-0.2,0.3-0.4,0.6-0.6,0.8c-0.4,0.5-0.9,1-1.5,1.4c-1.1,0.7-2.3,1.2-3.6,1.3c-1,0.1-2,0.2-3,0.1
		c-1.7,3.6-3.6,7.2-5.5,10.7l-0.3-0.2c1.5-3.6,2.9-7.1,4.3-10.7c-1-0.1-1.9-0.3-2.8-0.6l-0.8-0.3l0.5-0.7c0.5-0.7,0.9-1.5,1.3-2.2
		c0.4-0.8,0.7-1.6,0.9-2.4c0.5-1.6,0.6-3.4,0.4-5.1c-0.2-1.6-1.2-3-2.2-4.4c-1.1-1.4-2.3-2.6-3.7-3.7L28,54.8l2.7,0.1l4.2,0.1
		c-0.8-4-1.4-8.1-1.7-12.2C33,40.5,33,38.2,33.1,36c0.1-1.1,0.2-2.3,0.4-3.4c0.2-1.2,0.5-2.3,0.9-3.4c0.9-2.1,2-4.2,3.3-6
		c1.3-1.8,2.8-3.6,4.3-5.3c1.5-1.7,3.2-3.2,4.9-4.7c1.7-1.5,3.4-2.9,5.3-4.3L53.2,8l0.2,1.5c0.2,1.7,0.3,3.4,0.4,5.1s0.1,3.4,0,5.1
		c0,1.7-0.1,3.4-0.2,5.1s-0.3,3.4-0.5,5.1c-0.8,6.8-2.2,13.4-4.3,19.9c-2.1,6.4-4.5,12.8-7.2,18.9c-0.9,2.1-1.9,4.1-2.8,6.1
		c0.7,0,1.4,0,2.2-0.1c1.1-0.1,2.1-0.5,3-1.2c0.4-0.3,0.8-0.7,1.1-1.1c0.2-0.2,0.3-0.4,0.4-0.7l0.4-0.8c1.2-2.1,2.8-4.1,4.6-5.7
		c0.9-0.8,1.9-1.6,2.9-2.3c0.1-0.1,0.3-0.2,0.5-0.3l-5.5-0.1l-1.2,0.1l0.6-1.1c2.5-4.3,4.7-8.8,6.6-13.5c1.8-4.6,3.3-9.4,3.8-14.3
		c0.1-1.2,0.2-2.4,0.2-3.7v-0.9l0-0.9l-0.1-1.9c-0.1-2.5-0.2-5-0.4-7.6c-0.3-5-0.8-10.1-1.6-15.1h0c0.7,2.4,1.3,4.9,1.8,7.4
		c0.5,2.5,0.9,5,1.3,7.5s0.6,5.1,0.9,7.6l0.2,1.9l0.1,1l0.1,1c0.1,1.3,0.1,2.6,0,3.9c-0.2,2.6-0.6,5.2-1.2,7.7
		c-0.3,1.3-0.7,2.5-1.1,3.7c-0.4,1.2-0.9,2.4-1.4,3.6c-1,2.4-2.2,4.7-3.5,6.9c-0.7,1.1-1.4,2.2-2.1,3.2c-0.5,0.7-1,1.4-1.5,2
		l7.3-0.1l4.4-0.1L57.4,62.8z"/>
</g>
</svg>
