<?xml version="1.0" encoding="utf-8"?>
<!-- Generator: Adobe Illustrator 22.0.0, SVG Export Plug-In . SVG Version: 6.00 Build 0)  -->
<svg version="1.1" id="Layer_1" xmlns="http://www.w3.org/2000/svg" xmlns:xlink="http://www.w3.org/1999/xlink" x="0px" y="0px"
	 viewBox="0 0 77.3 67.6" style="enable-background:new 0 0 77.3 67.6;" xml:space="preserve">
<path d="M73.4,37.6H3.8c-2.1,0-3.8-1.7-3.8-3.8l0,0C0,31.7,1.7,30,3.8,30h69.7c2.1,0,3.8,1.7,3.8,3.8l0,0
	C77.3,35.9,75.6,37.6,73.4,37.6z"/>
<path d="M73.4,7.6H3.8C1.7,7.6,0,5.9,0,3.8l0,0C0,1.7,1.7,0,3.8,0h69.7c2.1,0,3.8,1.7,3.8,3.8l0,0C77.3,5.9,75.6,7.6,73.4,7.6z"/>
<path d="M73.4,67.6H3.8c-2.1,0-3.8-1.7-3.8-3.8l0,0C0,61.7,1.7,60,3.8,60h69.7c2.1,0,3.8,1.7,3.8,3.8l0,0
	C77.3,65.9,75.6,67.6,73.4,67.6z"/>
</svg>
