<?xml version="1.0" encoding="utf-8"?>
<!-- Generator: Adobe Illustrator 22.0.1, SVG Export Plug-In . SVG Version: 6.00 Build 0)  -->
<svg version="1.1" id="Layer_1" xmlns="http://www.w3.org/2000/svg" xmlns:xlink="http://www.w3.org/1999/xlink" x="0px" y="0px"
	 viewBox="0 0 90 90" style="enable-background:new 0 0 90 90;" xml:space="preserve">
<style type="text/css">
	.st0{enable-background:new    ;}
	.st1{fill:#FFFFFF;}
</style>
<g id="Layer_2_1_">
	<g id="Layer_1-2">
		<g class="st0">
			<path class="st1" d="M73.8,67.1c0,2.4,0.1,4.3,0.4,5.7c0.2,1.5,0.7,2.6,1.4,3.4c0.7,0.8,1.7,1.3,3.1,1.6c1.3,0.3,3.1,0.5,5.3,0.6
				V82H53.7v-3.6c2.2-0.1,3.9-0.2,5.3-0.6c1.3-0.3,2.4-0.8,3.1-1.6c0.7-0.7,1.2-1.8,1.5-3.2c0.2-1.4,0.4-3.1,0.4-5.3V47.5H26.1v19.6
				c0,2.4,0.1,4.3,0.4,5.7c0.2,1.5,0.7,2.6,1.4,3.4c0.7,0.8,1.7,1.3,3.1,1.6c1.3,0.3,3.1,0.5,5.3,0.6V82H6v-3.6
				c2.2-0.1,3.9-0.2,5.3-0.6c1.3-0.3,2.4-0.8,3.1-1.6c0.7-0.7,1.2-1.8,1.5-3.2c0.2-1.4,0.4-3.1,0.4-5.3V24.2c0-2.2-0.1-3.9-0.3-5.3
				c-0.2-1.3-0.7-2.4-1.3-3.2c-0.7-0.8-1.6-1.3-2.9-1.6C10.6,13.9,9,13.7,7,13.6V10h28.4v3.6c-2,0.1-3.6,0.2-4.8,0.6
				c-1.2,0.3-2.1,0.9-2.8,1.7c-0.7,0.8-1.1,1.9-1.3,3.4c-0.2,1.4-0.3,3.3-0.3,5.7v17.9H64V24.2c0-2.2-0.1-3.9-0.3-5.3
				c-0.2-1.3-0.7-2.4-1.3-3.2c-0.7-0.8-1.6-1.3-2.9-1.6c-1.2-0.3-2.9-0.5-4.9-0.6V10H83v3.6c-2,0.1-3.6,0.2-4.8,0.6
				c-1.2,0.3-2.1,0.9-2.8,1.7s-1.1,1.9-1.3,3.4c-0.2,1.4-0.3,3.3-0.3,5.7L73.8,67.1L73.8,67.1z"/>
		</g>
	</g>
</g>
</svg>
